<svg width="24" height="24" viewBox="0 0 24 24" fill="none" xmlns="http://www.w3.org/2000/svg">
<circle cx="5.52482" cy="6.52482" r="1.52482" fill="black"/>
<path d="M3.703 5.80147C3.88612 5.60717 3.66415 5.19165 3.99397 4.96507C4.32252 4.77226 4.46874 4.91166 4.79328 4.73591C5.05046 4.6134 5.34505 4.65722 5.52482 4.67422C5.58833 4.67973 5.64117 4.68145 5.68316 4.67155C5.85073 4.64044 5.83762 4.8284 6.04547 4.85951C6.25658 4.90397 6.36282 5.00531 6.47623 5.15403C6.60464 5.29602 6.9059 5.71926 6.97364 5.89744C7.05768 6.07049 7.04442 6.29418 7.05008 6.41682C7.05065 6.4562 7.05009 6.4865 7.04982 6.51019C7.04968 6.52019 7.04963 6.52482 7.04964 6.52482C7.04966 6.52482 7.04958 6.51763 7.0491 6.50481C7.04673 6.44311 7.03966 6.34905 7.00328 6.24554C6.92137 6.06009 6.94547 6.02472 6.78846 5.80723C6.6136 5.60135 6.44251 5.55993 6.21857 5.39611C5.97632 5.22934 5.84248 5.45962 5.52482 5.34267C5.52026 5.34112 5.51564 5.3395 5.51095 5.33783C5.12651 5.21721 5.14014 5.59892 4.99497 5.81791C4.85103 6.02655 4.53439 6.24959 4.54405 6.45722C4.54513 6.47911 4.54726 6.50137 4.55028 6.52482C4.55028 6.52482 4.55028 6.52482 4.55028 6.52482C4.57346 6.69708 4.63898 6.87582 4.71313 7.09318C4.81452 7.35508 5.12908 7.46792 5.4095 7.62114C5.44448 7.63954 5.48302 7.65684 5.52482 7.67205C5.83543 7.80707 6.31387 7.69472 6.50876 7.55413C6.73338 7.40473 6.77763 7.33837 6.89149 7.10336C6.95383 6.9665 7.03433 6.76625 7.04698 6.58375C7.05228 6.49257 7.0487 6.51324 7.05113 6.60517C7.05375 6.74067 7.03199 6.85023 7.03332 6.92344C7.03613 7.07029 7.05417 7.15008 6.95913 7.31225C6.85437 7.46459 6.87629 7.59339 6.80465 7.68684C6.715 7.7655 6.73093 7.75685 6.26478 8.14338C5.99679 8.34145 5.73333 8.42645 5.52482 8.46487C5.3432 8.49773 5.19644 8.4974 5.07501 8.49081C4.80057 8.48971 4.33183 8.18348 4.01721 7.90022C3.69129 7.67479 3.40495 6.94797 3.39424 6.52482C3.38826 6.47103 3.38313 6.42317 3.37732 6.38069C3.34113 6.0026 3.52291 6.02086 3.703 5.80147Z" fill="black"/>
<circle cx="18.7402" cy="6.52482" r="1.52482" fill="black"/>
<path d="M16.9183 5.80147C17.1015 5.60717 16.8795 5.19165 17.2093 4.96507C17.5379 4.77226 17.6841 4.91166 18.0086 4.73591C18.2658 4.6134 18.5604 4.65722 18.7402 4.67422C18.8037 4.67973 18.8565 4.68145 18.8985 4.67155C19.0661 4.64044 19.0529 4.8284 19.2608 4.85951C19.4719 4.90397 19.5782 5.00531 19.6916 5.15403C19.82 5.29602 20.1212 5.71926 20.189 5.89744C20.273 6.07049 20.2598 6.29418 20.2654 6.41682C20.266 6.4562 20.2654 6.4865 20.2652 6.51019C20.265 6.52019 20.265 6.52482 20.265 6.52482C20.265 6.52482 20.2649 6.51763 20.2644 6.50481C20.2621 6.44311 20.255 6.34905 20.2186 6.24554C20.1367 6.06009 20.1608 6.02472 20.0038 5.80723C19.8289 5.60135 19.6578 5.55993 19.4339 5.39611C19.1917 5.22934 19.0578 5.45962 18.7402 5.34267C18.7356 5.34112 18.731 5.3395 18.7263 5.33783C18.3418 5.21721 18.3555 5.59892 18.2103 5.81791C18.0664 6.02655 17.7497 6.24959 17.7594 6.45722C17.7605 6.47911 17.7626 6.50137 17.7656 6.52482C17.7656 6.52482 17.7656 6.52482 17.7656 6.52482C17.7888 6.69708 17.8543 6.87582 17.9285 7.09318C18.0298 7.35508 18.3444 7.46792 18.6248 7.62114C18.6598 7.63954 18.6984 7.65684 18.7402 7.67205C19.0508 7.80707 19.5292 7.69472 19.7241 7.55413C19.9487 7.40473 19.993 7.33837 20.1068 7.10336C20.1692 6.9665 20.2497 6.76625 20.2623 6.58375C20.2676 6.49257 20.264 6.51324 20.2665 6.60517C20.2691 6.74067 20.2473 6.85023 20.2486 6.92344C20.2515 7.07029 20.2695 7.15008 20.1745 7.31225C20.0697 7.46459 20.0916 7.59339 20.02 7.68684C19.9303 7.7655 19.9463 7.75685 19.4801 8.14338C19.2121 8.34145 18.9487 8.42645 18.7402 8.46487C18.5585 8.49773 18.4118 8.4974 18.2903 8.49081C18.0159 8.48971 17.5472 8.18348 17.2325 7.90022C16.9066 7.67479 16.6203 6.94797 16.6096 6.52482C16.6036 6.47103 16.5985 6.42317 16.5927 6.38069C16.5565 6.0026 16.7382 6.02086 16.9183 5.80147Z" fill="black"/>
<path d="M15.4704 16.7868C15.3696 16.7701 15.2745 16.8784 15.223 16.9345C15.2221 16.9355 15.2211 16.9365 15.2201 16.9375C15.2078 16.951 15.1946 16.9614 15.1791 16.9734C15.1424 17.0015 15.0922 17.0409 15.0036 17.1527C14.9697 17.1717 14.9362 17.1909 14.9033 17.2103C14.5442 17.4226 14.197 17.6438 13.8156 17.8268C13.8105 17.8279 13.8052 17.8289 13.7999 17.8299C13.6983 17.8498 13.5703 17.8689 13.4963 17.9109C13.4025 17.9645 13.3368 18.007 13.2822 18.0428C12.9579 18.1484 12.611 18.2093 12.2614 18.1971C12.1526 18.1935 12.0421 18.1824 11.9346 18.1641C11.8349 18.1471 11.7356 18.1243 11.6386 18.0968C11.585 18.0672 11.5354 18.0344 11.4905 18.0035C11.4273 17.96 11.3732 17.9202 11.3246 17.8973C11.2085 17.8424 11.0644 17.8198 10.9556 17.7985C10.9379 17.7951 10.9212 17.7918 10.9059 17.7885C10.8306 17.7465 10.7553 17.7014 10.6824 17.6549C10.6745 17.6582 10.6665 17.6616 10.6584 17.6651C10.5567 17.7091 10.4722 17.6673 10.3461 17.5974C10.2915 17.567 10.2271 17.5302 10.15 17.4914C10.1003 17.4664 10.059 17.4796 10.0248 17.4902C10.0148 17.4934 10.0052 17.4962 9.99643 17.4977C9.96616 17.503 9.95747 17.4713 9.9479 17.4341C9.93536 17.3856 9.92181 17.3281 9.85393 17.3268C9.63527 17.3203 9.61472 17.2034 9.60387 17.1199C9.60023 17.0949 9.59711 17.0724 9.58946 17.0553C9.56466 16.9998 9.48833 16.9754 9.41932 16.969C9.36453 16.9642 9.31283 16.8799 9.28817 16.8053C9.27851 16.7769 9.25369 16.7541 9.22298 16.7253C9.19155 16.6958 9.1556 16.6614 9.12975 16.613C9.06543 16.4914 9.03154 16.425 9.00627 16.3741C8.99901 16.3595 8.9923 16.3459 8.98584 16.3323C8.96477 16.2885 8.93485 16.2375 8.90693 16.1867C8.87403 16.1267 8.8405 16.0627 8.82395 16.0107C8.72715 15.9185 8.63074 15.824 8.5411 15.7248C8.49616 15.6759 8.40258 15.6559 8.2753 15.6682C8.1481 15.6808 7.99703 15.7228 7.85352 15.7935C7.71017 15.8641 7.58554 15.9612 7.51107 16.0735C7.43638 16.1853 7.42035 16.3035 7.45775 16.3887C7.53643 16.5655 7.62428 16.7337 7.72157 16.8909C7.84345 17.0865 7.97928 17.2653 8.13716 17.4261C8.2464 17.5374 8.36468 17.644 8.48412 17.7405C8.49655 17.7505 8.50908 17.7605 8.52165 17.7704C8.59488 17.8867 8.67338 17.9968 8.73883 18.0644C8.79284 18.1202 8.85091 18.1377 8.89924 18.1513C8.93277 18.1609 8.96245 18.1691 8.98507 18.1877C8.99723 18.1977 9.01321 18.2122 9.03268 18.2296C9.11271 18.3016 9.24923 18.419 9.41058 18.4734C9.48093 18.497 9.57031 18.5114 9.65564 18.5233C9.77837 18.5409 9.88974 18.5517 9.93105 18.588C10.0033 18.6518 10.1091 18.6823 10.2017 18.7062C10.2903 18.7294 10.3684 18.7476 10.3992 18.7897C10.4359 18.8399 10.4836 18.8457 10.554 18.8529C10.6028 18.8579 10.6628 18.8637 10.7388 18.8843C10.8262 18.9079 10.8941 18.907 10.9515 18.9057C11.0325 18.9038 11.0922 18.9012 11.1637 18.96C11.2433 19.0254 11.3353 19.0759 11.4151 19.0813C11.4512 19.0837 11.4909 19.0942 11.5324 19.1046C11.5873 19.1184 11.6457 19.132 11.7022 19.1273C11.7489 19.1235 11.79 19.099 11.8263 19.0771C11.8376 19.0702 11.8484 19.0637 11.8588 19.058C11.8934 19.0638 11.928 19.0695 11.9628 19.0752C11.9678 19.0809 11.973 19.0872 11.9784 19.0937C12.0058 19.1263 12.0403 19.1661 12.0869 19.189C12.16 19.2251 12.2295 19.214 12.3018 19.2008C12.3581 19.1906 12.4169 19.1791 12.4822 19.1871C12.5266 19.1926 12.5772 19.2067 12.628 19.22C12.7033 19.2397 12.7797 19.2572 12.8318 19.2442C12.8511 19.2394 12.8673 19.2194 12.883 19.1995C12.8831 19.1994 12.8832 19.1992 12.8832 19.1991C12.8843 19.1978 12.8854 19.1964 12.8864 19.1951C13.0118 19.2057 13.1417 19.2131 13.2689 19.217C13.2803 19.2209 13.2919 19.2246 13.3034 19.2282C13.3595 19.2459 13.4149 19.262 13.454 19.2897C13.4958 19.3199 13.5956 19.3264 13.6974 19.33C13.7647 19.3324 13.8349 19.3333 13.8944 19.3406C13.9292 19.3449 13.9558 19.3183 13.9825 19.2908C14.0079 19.2651 14.0319 19.2389 14.0651 19.2356C14.0817 19.234 14.101 19.2376 14.1218 19.2414C14.1401 19.2448 14.1595 19.2482 14.179 19.2482C14.1971 19.2482 14.2318 19.2274 14.2759 19.2001C14.3032 19.1832 14.3341 19.1639 14.3669 19.1453C14.4632 19.1286 14.5564 19.1099 14.6517 19.0871C14.6768 19.0967 14.7013 19.112 14.7248 19.1345C14.7416 19.1507 14.7586 19.1712 14.7761 19.1921C14.7999 19.2205 14.8247 19.2498 14.8517 19.2703C14.8727 19.2863 14.8914 19.2887 14.8982 19.2759C14.9014 19.2699 14.9021 19.2608 14.9026 19.2526C14.9033 19.2432 14.9037 19.2349 14.9078 19.2335C14.9108 19.2325 14.916 19.2369 14.9224 19.2422C14.9327 19.2506 14.946 19.2615 14.958 19.2572C15.0024 19.2413 15.0503 19.2161 15.0969 19.1907C15.1488 19.1624 15.1994 19.1339 15.2432 19.1185C15.2927 19.1011 15.3492 19.0493 15.4028 18.9974C15.4406 18.9611 15.478 18.9243 15.5132 18.8986C15.5477 18.8733 15.5924 18.8633 15.636 18.853C15.6882 18.8407 15.7393 18.8278 15.7644 18.7906C15.7696 18.7829 15.7663 18.7568 15.762 18.724C15.759 18.7008 15.7555 18.6743 15.7542 18.6488C15.7985 18.6225 15.8423 18.5948 15.8856 18.5657C15.8889 18.5675 15.8923 18.5694 15.8957 18.5713C15.8958 18.5713 15.8958 18.5714 15.8959 18.5714C15.9728 18.6145 16.0812 18.6713 16.1178 18.5717C16.1273 18.5462 16.1211 18.5147 16.1161 18.486C16.111 18.4579 16.1064 18.4328 16.116 18.4204C16.1268 18.4063 16.1524 18.4084 16.1804 18.4104C16.2196 18.4132 16.2639 18.4158 16.2777 18.3748C16.2786 18.372 16.2796 18.3689 16.2807 18.3658C16.2908 18.3364 16.3057 18.2927 16.3038 18.2272C16.385 18.1502 16.4606 18.0713 16.5323 17.9908C16.6524 17.8563 16.7697 17.7104 16.8735 17.5692C16.9252 17.4992 16.9355 17.3888 16.8975 17.2621C16.8596 17.1352 16.7773 17.0035 16.6679 16.8911C16.5584 16.7786 16.4298 16.6925 16.3092 16.6443C16.1886 16.5964 16.0868 16.5908 16.0214 16.6267C15.9158 16.6847 15.8074 16.7413 15.6999 16.796C15.693 16.7973 15.6863 16.7988 15.6797 16.8003C15.6305 16.8119 15.5704 16.8033 15.5111 16.7935C15.4974 16.7912 15.4838 16.7889 15.4704 16.7868Z" fill="black"/>
</svg>
